<svg width="110" height="46" viewBox="0 0 110 46" fill="none" xmlns="http://www.w3.org/2000/svg">
<path d="M82.767 7.55696C75.4466 7.55696 68.1262 7.55696 60.8058 7.55696C52.9525 7.55696 45.0992 7.55696 37.246 7.55696C30.2964 7.55696 22.7821 6.76179 15.9018 8.1758C9.30856 9.53083 3 12.641 3 20.2152C3 22.2897 4.26331 23.3052 5.55232 24.8565C8.85254 28.8283 11.558 32.3601 16.2384 34.8987C31.3332 43.086 48.4756 43 65.1251 43C76.2814 43 87.0364 42.386 97.9126 39.962C101.687 39.1208 107 36.8715 107 32.5921C107 26.2228 100.775 18.8395 95.753 15.602C89.6543 11.67 82.0168 10.2004 75.3064 7.66948C70.8151 5.97551 66.2155 4.1665 61.5631 3" stroke="#01D859" stroke-width="6" stroke-linecap="round"/>
</svg>
