<svg width="232" height="41" viewBox="0 0 232 41" fill="none" xmlns="http://www.w3.org/2000/svg">
<path d="M20.5 41C18.0704 41 15.7736 40.6014 13.6097 39.8042C11.4458 39.0069 9.49074 37.906 7.74444 36.5014L3.24583 41L0 37.7542L4.49861 33.2556C3.09398 31.5093 1.99306 29.5443 1.19583 27.3607C0.398611 25.177 0 22.8901 0 20.5C0 14.8056 2.00293 9.96528 6.00878 5.97917C10.0146 1.99306 14.845 0 20.5 0H41V20.5C41 26.1565 39.0069 30.9876 35.0208 34.9935C31.0347 38.9994 26.1944 41.0015 20.5 41ZM17.4819 31.6042L29.2694 21.0694C29.6491 20.7278 29.763 20.3201 29.6111 19.8463C29.4593 19.3725 29.1176 19.0969 28.5861 19.0194L19.3611 18.1083L24.8847 10.5347C25.0366 10.3449 25.1034 10.146 25.0852 9.93794C25.0669 9.72991 24.9811 9.53022 24.8278 9.33889C24.638 9.14907 24.4193 9.05417 24.1718 9.05417C23.9243 9.05417 23.7064 9.14907 23.5181 9.33889L11.7875 19.8736C11.4079 20.2153 11.294 20.6238 11.4458 21.0991C11.5977 21.5744 11.9394 21.8492 12.4708 21.9236L21.6958 22.8347L16.1153 30.4083C16.0014 30.5982 15.9444 30.7978 15.9444 31.0074C15.9444 31.2169 16.0394 31.4159 16.2292 31.6042C16.419 31.794 16.6278 31.8889 16.8556 31.8889C17.0833 31.8889 17.2921 31.794 17.4819 31.6042Z" fill="#01D859"/>
<path d="M68.6477 15.4205C68.5568 14.5038 68.1667 13.7917 67.4773 13.2841C66.7879 12.7765 65.8523 12.5227 64.6705 12.5227C63.8674 12.5227 63.1894 12.6364 62.6364 12.8636C62.0833 13.0833 61.6591 13.3902 61.3636 13.7841C61.0758 14.178 60.9318 14.625 60.9318 15.125C60.9167 15.5417 61.0038 15.9053 61.1932 16.2159C61.3902 16.5265 61.6591 16.7955 62 17.0227C62.3409 17.2424 62.7348 17.4356 63.1818 17.6023C63.6288 17.7614 64.1061 17.8977 64.6136 18.0114L66.7045 18.5114C67.7197 18.7386 68.6515 19.0417 69.5 19.4205C70.3485 19.7992 71.0833 20.2652 71.7045 20.8182C72.3258 21.3712 72.8068 22.0227 73.1477 22.7727C73.4962 23.5227 73.6742 24.3826 73.6818 25.3523C73.6742 26.7765 73.3106 28.0114 72.5909 29.0568C71.8788 30.0947 70.8485 30.9015 69.5 31.4773C68.1591 32.0455 66.5417 32.3295 64.6477 32.3295C62.7689 32.3295 61.1326 32.0417 59.7386 31.4659C58.3523 30.8902 57.2689 30.0379 56.4886 28.9091C55.7159 27.7727 55.3106 26.3674 55.2727 24.6932H60.0341C60.0871 25.4735 60.3106 26.125 60.7045 26.6477C61.1061 27.1629 61.6402 27.553 62.3068 27.8182C62.9811 28.0758 63.7424 28.2045 64.5909 28.2045C65.4242 28.2045 66.1477 28.0833 66.7614 27.8409C67.3826 27.5985 67.8636 27.2614 68.2045 26.8295C68.5455 26.3977 68.7159 25.9015 68.7159 25.3409C68.7159 24.8182 68.5606 24.3788 68.25 24.0227C67.947 23.6667 67.5 23.3636 66.9091 23.1136C66.3258 22.8636 65.6098 22.6364 64.7614 22.4318L62.2273 21.7955C60.2652 21.3182 58.7159 20.572 57.5795 19.5568C56.4432 18.5417 55.8788 17.1742 55.8864 15.4545C55.8788 14.0455 56.2538 12.8144 57.0114 11.7614C57.7765 10.7083 58.8258 9.88636 60.1591 9.29545C61.4924 8.70454 63.0076 8.40909 64.7045 8.40909C66.4318 8.40909 67.9394 8.70454 69.2273 9.29545C70.5227 9.88636 71.5303 10.7083 72.25 11.7614C72.9697 12.8144 73.3409 14.0341 73.3636 15.4205H68.6477ZM80.9178 32.3295C79.8042 32.3295 78.8118 32.1364 77.9406 31.75C77.0694 31.3561 76.38 30.7765 75.8724 30.0114C75.3724 29.2386 75.1224 28.2765 75.1224 27.125C75.1224 26.1553 75.3004 25.3409 75.6565 24.6818C76.0125 24.0227 76.4974 23.4924 77.111 23.0909C77.7247 22.6894 78.4216 22.3864 79.2019 22.1818C79.9898 21.9773 80.8156 21.8333 81.6792 21.75C82.6944 21.6439 83.5125 21.5455 84.1338 21.4545C84.755 21.3561 85.2057 21.2121 85.486 21.0227C85.7663 20.8333 85.9065 20.553 85.9065 20.1818V20.1136C85.9065 19.3939 85.6792 18.8371 85.2247 18.4432C84.7777 18.0492 84.1413 17.8523 83.3156 17.8523C82.4444 17.8523 81.7512 18.0455 81.236 18.4318C80.7209 18.8106 80.38 19.2879 80.2133 19.8636L75.736 19.5C75.9633 18.4394 76.4103 17.5227 77.0769 16.75C77.7436 15.9697 78.6034 15.3712 79.6565 14.9545C80.7171 14.5303 81.9444 14.3182 83.3383 14.3182C84.308 14.3182 85.236 14.4318 86.1224 14.6591C87.0163 14.8864 87.808 15.2386 88.4974 15.7159C89.1944 16.1932 89.7436 16.8068 90.1451 17.5568C90.5466 18.2992 90.7474 19.1894 90.7474 20.2273V32H86.1565V29.5795H86.0201C85.7398 30.125 85.3648 30.6061 84.8951 31.0227C84.4254 31.4318 83.861 31.7538 83.2019 31.9886C82.5428 32.2159 81.7815 32.3295 80.9178 32.3295ZM82.3042 28.9886C83.0163 28.9886 83.6451 28.8485 84.1906 28.5682C84.736 28.2803 85.1641 27.8939 85.4747 27.4091C85.7853 26.9242 85.9406 26.375 85.9406 25.7614V23.9091C85.7891 24.0076 85.5807 24.0985 85.3156 24.1818C85.058 24.2576 84.7663 24.3295 84.4406 24.3977C84.1148 24.4583 83.7891 24.5152 83.4633 24.5682C83.1375 24.6136 82.8421 24.6553 82.5769 24.6932C82.0088 24.7765 81.5125 24.9091 81.0883 25.0909C80.6641 25.2727 80.3345 25.5189 80.0997 25.8295C79.8648 26.1326 79.7474 26.5114 79.7474 26.9659C79.7474 27.625 79.986 28.1288 80.4633 28.4773C80.9481 28.8182 81.5618 28.9886 82.3042 28.9886ZM109.191 14.5455L103.089 32H97.634L91.5317 14.5455H96.6453L100.27 27.0341H100.452L104.066 14.5455H109.191ZM118.1 32.3409C116.305 32.3409 114.759 31.9773 113.464 31.25C112.176 30.5152 111.183 29.4773 110.486 28.1364C109.79 26.7879 109.441 25.1932 109.441 23.3523C109.441 21.5568 109.79 19.9811 110.486 18.625C111.183 17.2689 112.165 16.2121 113.43 15.4545C114.702 14.697 116.195 14.3182 117.907 14.3182C119.058 14.3182 120.13 14.5038 121.123 14.875C122.123 15.2386 122.994 15.7879 123.736 16.5227C124.486 17.2576 125.07 18.1818 125.486 19.2955C125.903 20.4015 126.111 21.697 126.111 23.1818V24.5114H111.373V21.5114H121.555C121.555 20.8144 121.403 20.197 121.1 19.6591C120.797 19.1212 120.377 18.7008 119.839 18.3977C119.308 18.0871 118.691 17.9318 117.986 17.9318C117.252 17.9318 116.6 18.1023 116.032 18.4432C115.471 18.7765 115.032 19.2273 114.714 19.7955C114.396 20.3561 114.233 20.9811 114.225 21.6705V24.5227C114.225 25.3864 114.384 26.1326 114.702 26.7614C115.028 27.3902 115.486 27.875 116.077 28.2159C116.668 28.5568 117.369 28.7273 118.18 28.7273C118.718 28.7273 119.21 28.6515 119.657 28.5C120.104 28.3485 120.486 28.1212 120.805 27.8182C121.123 27.5152 121.365 27.1439 121.532 26.7045L126.009 27C125.782 28.0758 125.316 29.0152 124.611 29.8182C123.915 30.6136 123.013 31.2348 121.907 31.6818C120.808 32.1212 119.54 32.3409 118.1 32.3409ZM128.401 32V8.72727H144.083V12.7841H133.322V18.3295H143.276V22.3864H133.322V27.9432H144.129V32H128.401ZM151.785 21.9091V32H146.944V14.5455H151.558V17.625H151.762C152.149 16.6098 152.797 15.8068 153.706 15.2159C154.615 14.6174 155.717 14.3182 157.012 14.3182C158.225 14.3182 159.281 14.5833 160.183 15.1136C161.084 15.6439 161.785 16.4015 162.285 17.3864C162.785 18.3636 163.035 19.5303 163.035 20.8864V32H158.194V21.75C158.202 20.6818 157.929 19.8485 157.376 19.25C156.823 18.6439 156.062 18.3409 155.092 18.3409C154.441 18.3409 153.865 18.4811 153.365 18.7614C152.872 19.0417 152.486 19.4508 152.206 19.9886C151.933 20.5189 151.793 21.1591 151.785 21.9091ZM173.845 32.3409C172.05 32.3409 170.504 31.9773 169.209 31.25C167.921 30.5152 166.928 29.4773 166.231 28.1364C165.535 26.7879 165.186 25.1932 165.186 23.3523C165.186 21.5568 165.535 19.9811 166.231 18.625C166.928 17.2689 167.91 16.2121 169.175 15.4545C170.447 14.697 171.94 14.3182 173.652 14.3182C174.803 14.3182 175.875 14.5038 176.868 14.875C177.868 15.2386 178.739 15.7879 179.481 16.5227C180.231 17.2576 180.815 18.1818 181.231 19.2955C181.648 20.4015 181.856 21.697 181.856 23.1818V24.5114H167.118V21.5114H177.3C177.3 20.8144 177.148 20.197 176.845 19.6591C176.542 19.1212 176.122 18.7008 175.584 18.3977C175.053 18.0871 174.436 17.9318 173.731 17.9318C172.997 17.9318 172.345 18.1023 171.777 18.4432C171.216 18.7765 170.777 19.2273 170.459 19.7955C170.141 20.3561 169.978 20.9811 169.97 21.6705V24.5227C169.97 25.3864 170.129 26.1326 170.447 26.7614C170.773 27.3902 171.231 27.875 171.822 28.2159C172.413 28.5568 173.114 28.7273 173.925 28.7273C174.463 28.7273 174.955 28.6515 175.402 28.5C175.849 28.3485 176.231 28.1212 176.55 27.8182C176.868 27.5152 177.11 27.1439 177.277 26.7045L181.754 27C181.527 28.0758 181.061 29.0152 180.356 29.8182C179.66 30.6136 178.758 31.2348 177.652 31.6818C176.553 32.1212 175.285 32.3409 173.845 32.3409ZM184.056 32V14.5455H188.749V17.5909H188.931C189.249 16.5076 189.783 15.6894 190.533 15.1364C191.283 14.5758 192.146 14.2955 193.124 14.2955C193.366 14.2955 193.628 14.3106 193.908 14.3409C194.188 14.3712 194.434 14.4129 194.646 14.4659V18.7614C194.419 18.6932 194.105 18.6326 193.703 18.5795C193.302 18.5265 192.934 18.5 192.601 18.5C191.889 18.5 191.253 18.6553 190.692 18.9659C190.139 19.2689 189.7 19.6932 189.374 20.2386C189.056 20.7841 188.896 21.4129 188.896 22.125V32H184.056ZM203.24 38.9091C201.672 38.9091 200.328 38.6932 199.206 38.2614C198.093 37.8371 197.206 37.2576 196.547 36.5227C195.888 35.7879 195.46 34.9621 195.263 34.0455L199.74 33.4432C199.877 33.7917 200.093 34.1174 200.388 34.4205C200.684 34.7235 201.074 34.9659 201.559 35.1477C202.051 35.3371 202.65 35.4318 203.354 35.4318C204.407 35.4318 205.275 35.1742 205.956 34.6591C206.646 34.1515 206.99 33.2992 206.99 32.1023V28.9091H206.786C206.574 29.3939 206.256 29.8523 205.831 30.2841C205.407 30.7159 204.862 31.0682 204.195 31.3409C203.528 31.6136 202.733 31.75 201.809 31.75C200.498 31.75 199.305 31.447 198.229 30.8409C197.161 30.2273 196.309 29.2917 195.672 28.0341C195.043 26.7689 194.729 25.1705 194.729 23.2386C194.729 21.2614 195.051 19.6098 195.695 18.2841C196.339 16.9583 197.195 15.9659 198.263 15.3068C199.339 14.6477 200.517 14.3182 201.797 14.3182C202.775 14.3182 203.593 14.4848 204.252 14.8182C204.911 15.1439 205.441 15.553 205.843 16.0455C206.252 16.5303 206.566 17.0076 206.786 17.4773H206.968V14.5455H211.775V32.1705C211.775 33.6553 211.411 34.8977 210.684 35.8977C209.956 36.8977 208.949 37.6477 207.661 38.1477C206.381 38.6553 204.907 38.9091 203.24 38.9091ZM203.343 28.1136C204.123 28.1136 204.782 27.9205 205.32 27.5341C205.865 27.1402 206.282 26.5795 206.57 25.8523C206.865 25.1174 207.013 24.2386 207.013 23.2159C207.013 22.1932 206.869 21.3068 206.581 20.5568C206.293 19.7992 205.877 19.2121 205.331 18.7955C204.786 18.3788 204.123 18.1705 203.343 18.1705C202.547 18.1705 201.877 18.3864 201.331 18.8182C200.786 19.2424 200.373 19.8333 200.093 20.5909C199.812 21.3485 199.672 22.2235 199.672 23.2159C199.672 24.2235 199.812 25.0947 200.093 25.8295C200.381 26.5568 200.793 27.1212 201.331 27.5227C201.877 27.9167 202.547 28.1136 203.343 28.1136ZM217.655 38.5455C217.042 38.5455 216.466 38.4962 215.928 38.3977C215.398 38.3068 214.958 38.1894 214.61 38.0455L215.701 34.4318C216.269 34.6061 216.78 34.7008 217.235 34.7159C217.697 34.7311 218.095 34.625 218.428 34.3977C218.769 34.1705 219.046 33.7841 219.258 33.2386L219.542 32.5L213.28 14.5455H218.371L221.985 27.3636H222.167L225.815 14.5455H230.94L224.155 33.8864C223.83 34.8258 223.387 35.6439 222.826 36.3409C222.273 37.0455 221.572 37.5871 220.724 37.9659C219.875 38.3523 218.852 38.5455 217.655 38.5455Z" fill="white"/>
</svg>
