<svg width="52" height="60" viewBox="0 0 52 60" fill="none" xmlns="http://www.w3.org/2000/svg">
<path d="M25.202 57.3405C25.202 49.6695 25.202 41.9986 25.202 34.3276C25.202 31.517 25.202 28.7063 25.202 25.8957C25.202 24.2575 24.6387 25.0129 23.0103 25.0129" stroke="#01D859" stroke-width="4" stroke-linecap="round"/>
<path d="M23.5582 25.0128C19.5364 25.0128 15.8493 25.4758 13.8173 21.1774C11.934 17.1936 13.6955 13.0158 13.6955 9.12302" stroke="#01D859" stroke-width="4" stroke-linecap="round"/>
<path d="M13.6955 9.12302H34.5167" stroke="#01D859" stroke-width="4" stroke-linecap="round"/>
<path d="M26.2978 25.0129C27.7639 25.0129 30.8375 23.0768 31.1987 21.4514C31.9208 18.202 35.0646 15.0828 35.0646 11.8627" stroke="#01D859" stroke-width="4" stroke-linecap="round"/>
<path d="M18.6269 2V6.93133" stroke="#01D859" stroke-width="4" stroke-linecap="round"/>
<path d="M29.5854 3.09586V6.93133" stroke="#01D859" stroke-width="4" stroke-linecap="round"/>
<path d="M25.7499 49.1216C26.2225 44.8678 36.0013 43.1929 39.1132 42.2421C44.7753 40.512 49.3107 38.0697 49.3107 31.588C49.3107 30.2136 48.6415 28.3613 46.8754 28.3613C46.4037 28.3613 46.571 29.3884 46.571 29.6702C46.571 30.556 45.9804 31.1491 45.2317 31.5575C43.0006 32.7745 40.6398 32.6358 38.3522 33.7797C34.8416 35.5349 30.1333 38.3008 30.1333 42.5465" stroke="#01D859" stroke-width="4" stroke-linecap="round"/>
<path d="M24.654 41.4506C19.3743 41.4506 13.3979 42.3258 8.33804 40.9027C6.82517 40.4772 5.42867 39.7407 3.9242 39.2894C1.77095 38.6434 2.09045 32.4868 2.00646 30.7965C1.92912 29.2401 2.549 26.2336 3.71112 28.8484C4.07736 29.6724 3.48564 30.8205 3.95464 31.588C5.3616 33.8903 11.3628 34.858 13.6955 35.9714C16.974 37.5361 22.8552 39.3416 24.1061 43.0944" stroke="#01D859" stroke-width="4" stroke-linecap="round"/>
</svg>
