<svg width="41" height="63" viewBox="0 0 41 63" fill="none" xmlns="http://www.w3.org/2000/svg">
<path d="M16.6219 53.9646C16.955 55.7616 16.9295 58.3387 17.76 60.0082C17.9932 60.4771 22.5737 60.2491 23.0961 60.1628C25.3658 59.788 27.6239 59.3235 29.8858 58.9043C31.4553 58.6134 31.0621 57.2485 30.8298 55.9952C30.5508 54.4903 29.4966 52.0098 28.6462 50.7708C28.005 49.8366 27.2027 49.7621 26.1007 50.4385C23.3998 52.0961 20.22 52.6543 17.1286 53.2274" stroke="#01D859" stroke-width="3" stroke-linecap="round"/>
<path d="M16.8176 53.285C13.266 53.9433 10.8629 52.4132 9.15162 49.2377C6.34191 44.0239 2.75119 38.3557 2.68264 32.1735C2.64972 29.2052 4.62333 27.0132 5.84177 24.4398C6.55794 22.9273 7.6697 20.8831 9.10639 19.9748C10.8075 18.8992 13.5188 18.7593 15.4411 18.4789C18.0537 18.0979 21.0976 19.5236 23.4522 20.5323C25.5048 21.4115 27.4013 21.9028 28.9961 23.5433C32.1545 26.7921 33.2285 31.0247 33.7705 35.4176C34.0241 37.4739 33.3121 40.4052 32.8169 42.4208C32.5632 43.4534 32.2352 44.6712 31.6285 45.5539C30.2542 47.5537 29.7126 48.2131 27.6669 49.344" stroke="#01D859" stroke-width="3" stroke-linecap="round"/>
<path d="M22.1846 51.0035C21.5213 51.0427 21.3528 48.2514 21.2396 47.6404C21.0914 46.8414 22.7774 44.7474 21.7931 44.071C20.9347 43.4811 19.0914 44.2164 18.195 44.3269C17.6098 44.3991 15.1701 44.9369 14.6379 44.611C13.6288 43.993 17.6465 42.0108 18.0225 41.6605C18.5384 41.1799 18.5992 40.6638 18.9475 40.0952C19.4073 39.3443 17.7653 39.9256 17.4053 39.97C16.3705 40.0977 12.761 40.5202 12.2886 39.1672C11.5182 36.9607 16.9675 35.3386 18.1907 33.8916C19.0714 32.8498 16.3996 33.7411 15.9965 33.8158C15.0774 33.9861 14.3826 34.1851 13.5547 33.9467" stroke="#01D859" stroke-width="3" stroke-linecap="round"/>
<path d="M16.86 2.43524V8.64403" stroke="#01D859" stroke-width="3" stroke-linecap="round"/>
<path d="M26.3082 11.0735C27.1515 10.2302 28.3594 9.4306 28.8877 8.37407C29.1938 7.7618 30.0301 6.78303 30.6273 6.48444" stroke="#01D859" stroke-width="3" stroke-linecap="round"/>
<path d="M33.3268 18.6321C34.2466 18.6321 35.1664 18.6321 36.0863 18.6321C37.0176 18.6321 37.8272 18.0922 38.7257 18.0922" stroke="#01D859" stroke-width="3" stroke-linecap="round"/>
</svg>
