<svg width="273" height="24" viewBox="0 0 273 24" fill="none" xmlns="http://www.w3.org/2000/svg">
<path d="M3 3.01562C68.3315 3.01562 133.663 3.01562 198.994 3.01562C220.699 3.01562 242.378 2.84875 264.051 3.60598C265.726 3.6645 273.665 3.90116 267.977 3.90116C263.953 3.90116 260.003 3.60598 255.915 3.60598C213.04 3.60598 170.481 3.96048 127.737 6.16423C109.277 7.11595 90.7681 8.07054 72.3519 9.28004C66.4793 9.66573 60.6805 10.2059 54.7721 10.3952C51.0682 10.5138 47.4153 10.6904 43.7065 10.6904C37.1349 10.6904 30.3069 12.1444 23.8226 12.7566C23.4837 12.7886 19.0272 13.347 20.1815 13.347C22.9133 13.347 25.644 13.3546 28.374 13.2814C66.8042 12.251 105.442 11.0014 143.638 8.3289C162.238 7.02749 180.774 5.33977 199.393 4.14715C202.589 3.94241 205.839 4.10413 209.008 3.90116C209.267 3.88455 208.519 3.79382 208.268 3.75357C206.993 3.54943 207.229 3.65314 205.082 3.86836C200.045 4.37335 191.44 5.43758 187.161 5.96744C160.859 9.22416 134.86 13.054 108.934 17.1844C103.113 18.1118 97.2869 19.0323 91.4962 20.0214C90.7678 20.1458 89.0599 20.282 88.3387 20.579C85.9149 21.577 94.2943 20.4959 97.2708 20.4314C138.72 19.5327 263.116 18.0699 221.638 18.0699" stroke="#01D859" stroke-width="5" stroke-linecap="round"/>
</svg>
