<svg width="138" height="51" viewBox="0 0 138 51" fill="none" xmlns="http://www.w3.org/2000/svg">
<path d="M116.809 7.76843C118.465 5.02996 120.226 1.93272 123.928 2.69839C127.14 3.36276 137.749 7.92602 134.731 12.9166C133.776 14.4947 132.914 15.1599 131.248 16.0443C129.825 16.7994 128.467 16.9042 126.908 17.053C125.758 17.1628 124.489 16.5922 123.428 16.8034C121.5 17.1877 119.916 19.4032 119.735 21.4301" stroke="#01D859" stroke-width="4" stroke-linecap="round"/>
<path d="M117.728 28.4488C119.301 29.4006 119.576 30.3416 117.409 30.0856C114.91 29.7902 117.487 26.4999 118.74 26.7744" stroke="#01D859" stroke-width="4" stroke-linecap="round"/>
<path d="M2.20489 40.1379C15.6314 29.928 32.0083 23.67 48.2021 19.4606C63.0596 15.5986 78.9993 14.0006 94.3271 15.094C96.2016 15.2277 98.071 15.4765 99.9393 15.6795C100.443 15.7343 98.7862 14.7863 98.5916 14.6317C97.1592 13.4933 95.8421 11.7264 93.8879 11.5141" stroke="#01D859" stroke-width="4" stroke-linecap="round"/>
<path d="M99.9174 16.5541C98.0289 16.3489 94.1363 18.9088 93.3323 20.6618" stroke="#01D859" stroke-width="4" stroke-linecap="round"/>
</svg>
