<svg width="31" height="44" viewBox="0 0 31 44" fill="none" xmlns="http://www.w3.org/2000/svg">
<path d="M2.95143 3.89103C2.95143 9.14266 2.95143 14.3943 2.95143 19.6459C2.95143 23.6154 2.98624 27.5868 2.85875 31.5548C2.77879 34.0436 2.55623 36.5247 2.53438 39.0152C2.52809 39.7328 2.2181 41.4846 2.62706 42.1662C2.87706 42.5829 3.65161 41.8363 3.87819 41.7491C5.4237 41.1547 6.59949 41.0077 8.28029 41.0077C12.0646 41.0077 15.8488 41.0077 19.6331 41.0077C22.5215 41.0077 25.4099 41.0077 28.2983 41.0077C30.582 41.0077 28.2612 33.7093 27.9739 32.273C26.4712 24.7592 27.5569 16.0793 27.5569 8.50165C27.5569 7.1733 27.5569 5.84494 27.5569 4.51659C27.5569 2.80477 25.1463 3.52814 23.7803 3.26546C17.1647 1.99322 9.67459 1.80582 2.95143 1.80582" stroke="#01D859" stroke-width="3" stroke-linecap="round"/>
<path d="M4.20256 18.0704C9.90213 18.0704 15.6017 18.0704 21.3013 18.0704C23.2106 18.0704 24.8132 17.2364 26.7228 17.2364" stroke="#01D859" stroke-width="3" stroke-linecap="round"/>
<path d="M20.0501 24.7431V31.4158" stroke="#01D859" stroke-width="3" stroke-linecap="round"/>
<path d="M21.7183 11.8148V12.6489" stroke="#01D859" stroke-width="3" stroke-linecap="round"/>
</svg>
