<svg width="81" height="71" viewBox="0 0 81 71" fill="none" xmlns="http://www.w3.org/2000/svg">
<path d="M13 61C13.1319 58.3555 14.463 55.9218 15.7897 53.7047C18.422 49.3057 21.3812 45.1179 24.0456 40.7394C26.1658 37.2553 28.4366 33.8507 30.756 30.4957C30.9586 30.2027 32 28.1936 32 29.3618" stroke="#01D859" stroke-width="4" stroke-linecap="round"/>
<path d="M13 60C18.4373 60 23.466 59.985 28.7658 58.8C34.1393 57.5986 39.633 56.9497 45.1094 56.25C48.6458 55.7982 52.1937 55.853 55.7131 55.4333C59.059 55.0343 62.8221 54.9474 66 54" stroke="#01D859" stroke-width="4" stroke-linecap="round"/>
<path d="M33 28C40.8091 28 48.1482 27.0848 55.8226 25.7407C60.494 24.9226 65.0709 23 69.8702 23C72.7399 23 81.289 22 78.4192 22" stroke="#01D859" stroke-width="4" stroke-linecap="round"/>
<path d="M79 23C79 30.2416 74.916 36.4738 72.6918 43.1564C71.7635 45.9454 70.3191 48.6505 69.6452 51.5246C69.5864 51.775 69 53.3733 69 52.9193" stroke="#01D859" stroke-width="4" stroke-linecap="round"/>
<path d="M20 46.9848C23.4957 46.9848 26.9975 47.0512 30.491 46.9067C35.7267 46.6901 40.3664 45.6055 45.4426 44.5431C51.2648 43.3245 57.085 42.2588 62.9403 41.3396C65.6123 40.9202 68.2825 41.0076 71 41.0076" stroke="#01D859" stroke-width="4" stroke-linecap="round"/>
<path d="M26 36C33.5851 36 40.8406 35.8853 48.3489 35C53.0336 34.4476 57.6548 33.1896 62.3598 32.5926C66.5331 32.0631 70.8413 32 75 32" stroke="#01D859" stroke-width="4" stroke-linecap="round"/>
<path d="M52 27C52 34.5202 47.6172 41.0962 45.52 48.1481C44.8828 50.2909 43 52.8321 43 55" stroke="#01D859" stroke-width="4" stroke-linecap="round"/>
<path d="M43.4105 57C43.4105 60.8603 43.6423 64.803 43.4105 68.6571C43.3979 68.8669 40.8271 68.5972 40.4407 68.4857C38.4883 67.9222 36.0758 68.3143 34.0611 68.3143C33.2004 68.3143 32.3271 69 33.7678 69C35.4169 69 37.016 68.6571 38.6258 68.6571C42.7177 68.6571 46.9521 67.9714 51 67.9714" stroke="#01D859" stroke-width="4" stroke-linecap="round"/>
<path d="M18.0621 33C16.7002 31.5628 15.6906 30.36 14.6403 28.6471C13.9602 27.5378 14.0815 25.0921 14.017 23.8323C13.8355 20.288 15.1134 18.8693 17.5846 16.932C18.6874 16.0675 20.0029 15.6184 21.2849 15.1265C24.0701 14.0576 27.393 13.9166 30.3034 14.0347C31.636 14.0888 34.0535 14.17 35.1044 15.3644C36.261 16.6789 35.9665 18.2014 35.9665 19.8993" stroke="#01D859" stroke-width="4" stroke-linecap="round"/>
<path d="M7 28.5702C6.16198 28.5702 2.35204 29.8467 2 28" stroke="#01D859" stroke-width="4" stroke-linecap="round"/>
<path d="M7 17C5.00981 17 3.71587 16.6863 2 16" stroke="#01D859" stroke-width="4" stroke-linecap="round"/>
<path d="M14.8239 12C14.8239 10.3724 15.8377 6.93349 13 6" stroke="#01D859" stroke-width="4" stroke-linecap="round"/>
<path d="M28 2V8" stroke="#01D859" stroke-width="4" stroke-linecap="round"/>
<path d="M40 13C40.7156 13 41.3283 12 42 12" stroke="#01D859" stroke-width="4" stroke-linecap="round"/>
</svg>
