<svg width="377" height="34" viewBox="0 0 377 34" fill="none" xmlns="http://www.w3.org/2000/svg">
<path d="M6.10547 19.7383C6.07943 19.8685 5.94271 21.6784 5.69531 25.168C5.53906 27.4987 4.64062 28.6641 3 28.6641C2.28385 28.6641 1.67188 28.4036 1.16406 27.8828C0.65625 27.362 0.402344 26.7435 0.402344 26.0273C0.402344 23.6055 0.545573 20.2656 0.832031 16.0078C1.18359 11.2422 1.35938 7.89583 1.35938 5.96875C0.630208 5.39583 0.265625 4.64062 0.265625 3.70312C0.265625 2.29688 1.30078 1.38542 3.37109 0.96875C4.28255 0.773438 5.84505 0.675781 8.05859 0.675781C10.8841 0.675781 13.319 1.18359 15.3633 2.19922C18.0977 3.57943 19.4648 5.63672 19.4648 8.37109C19.4648 11.2617 17.8633 13.8138 14.6602 16.0273C12.1992 17.7591 9.34766 18.9961 6.10547 19.7383ZM7.16016 5.96875C6.99089 5.96875 6.82812 5.96875 6.67188 5.96875C6.64583 8.29948 6.63281 11.0404 6.63281 14.1914C11.6719 12.6029 14.1914 10.6302 14.1914 8.27344C14.1914 6.73698 11.8477 5.96875 7.16016 5.96875ZM30.6977 28.6641C27.7029 28.6641 25.3266 27.3555 23.5688 24.7383C22.0583 22.4857 21.3031 19.862 21.3031 16.8672C21.3031 13.0651 22.0583 9.63411 23.5688 6.57422C25.5219 2.65495 28.3214 0.695312 31.9672 0.695312C35.3656 0.695312 38.0479 1.79557 40.0141 3.99609C41.85 6.09245 42.768 8.83984 42.768 12.2383C42.768 15.9232 41.7458 19.4453 39.7016 22.8047C37.3057 26.7109 34.3044 28.6641 30.6977 28.6641ZM31.3813 6.00781C29.9359 6.00781 28.712 7.49219 27.7094 10.4609C26.9281 12.8177 26.5375 14.9531 26.5375 16.8672C26.5375 19.7578 27.3578 21.737 28.9984 22.8047C29.5844 23.1823 30.1182 23.3711 30.6 23.3711C32.5141 23.3711 34.1938 21.9909 35.6391 19.2305C36.9021 16.8086 37.5336 14.4323 37.5336 12.1016C37.5336 8.03906 35.4828 6.00781 31.3813 6.00781ZM57.4383 21.6914C59.743 23.3841 60.8953 24.8294 60.8953 26.0273C60.8953 26.7695 60.6154 27.3815 60.0555 27.8633C59.5086 28.332 58.8901 28.5664 58.2 28.5664C57.7182 28.5664 57.1518 28.332 56.5008 27.8633C55.4852 27.0169 53.8641 25.8646 51.6375 24.4062V24.8945C51.6635 27.4076 50.7651 28.6641 48.9422 28.6641C48.226 28.6641 47.6141 28.4232 47.1063 27.9414C46.5984 27.4466 46.3445 26.8346 46.3445 26.1055C46.3445 24.6341 46.3445 22.1862 46.3445 18.7617C46.644 16.1185 46.7938 12.1667 46.7938 6.90625H47.0281C46.325 6.90625 45.713 6.65234 45.1922 6.14453C44.6844 5.6237 44.4305 5.01172 44.4305 4.30859C44.4305 3.05859 45.3549 2.08854 47.2039 1.39844C48.5841 0.916667 50.0294 0.675781 51.5398 0.675781C55.1206 0.675781 58.1219 1.70443 60.5438 3.76172C63.0958 5.96224 64.3719 8.85286 64.3719 12.4336C64.3719 16.6133 62.0607 19.6992 57.4383 21.6914ZM52.3992 5.96875C52.3602 7.96094 52.3406 11.9583 52.3406 17.9609C56.8458 16.5807 59.0984 14.7057 59.0984 12.3359C59.0984 10.9818 58.3563 9.64714 56.8719 8.33203C55.4656 7.08203 53.9747 6.29427 52.3992 5.96875ZM89.9625 27.1602C90.7177 28.9701 91.0953 30.1484 91.0953 30.6953C91.0953 31.4115 90.8284 32.0234 90.2945 32.5312C89.7607 33.0391 89.1487 33.293 88.4586 33.293C86.9612 33.293 85.7568 31.75 84.8453 28.6641H84.7281C81.499 28.6901 78.9404 27.3034 77.0523 24.5039C75.4378 22.082 74.6305 19.25 74.6305 16.0078C74.6305 12.4661 75.4508 9.19792 77.0914 6.20312C79.1096 2.51823 81.844 0.675781 85.2945 0.675781C88.8232 0.675781 91.6552 2.1862 93.7906 5.20703C95.7047 7.85026 96.6617 10.9492 96.6617 14.5039C96.6617 17.056 96.0953 19.4518 94.9625 21.6914C93.7516 24.0482 92.0849 25.8711 89.9625 27.1602ZM87.5211 6.63281C86.7398 6.125 86.0628 5.87109 85.4898 5.87109C83.8622 5.87109 82.4755 7.1276 81.3297 9.64062C80.3401 11.7891 79.8453 13.931 79.8453 16.0664C79.8453 17.3164 80.0927 18.5273 80.5875 19.6992C81.0953 20.9622 81.7854 21.9323 82.6578 22.6094L82.6188 22.4727C82.2932 21.5612 82.1305 20.9036 82.1305 20.5C82.1305 19.7839 82.3909 19.1719 82.9117 18.6641C83.4456 18.1562 84.0576 17.9023 84.7477 17.9023C86.219 17.9023 87.3648 19.2565 88.1852 21.9648C90.3466 20.1419 91.4273 17.6549 91.4273 14.5039C91.4273 12.9023 91.0888 11.4115 90.4117 10.0312C89.7346 8.5599 88.7711 7.42708 87.5211 6.63281ZM107.934 28.6641C104.314 28.6641 101.736 26.776 100.199 23C99.1576 20.4219 98.6367 17.1536 98.6367 13.1953C98.6367 7.4401 99.0013 3.86589 99.7305 2.47266C100.355 1.27474 101.202 0.675781 102.27 0.675781C102.999 0.675781 103.611 0.949219 104.105 1.49609C104.613 2.02995 104.867 2.65495 104.867 3.37109C104.867 3.68359 104.704 4.78385 104.379 6.67188C104.079 8.19531 103.93 10.4349 103.93 13.3906C103.93 20.0833 105.29 23.4297 108.012 23.4297C111.072 23.4297 112.602 18.9961 112.602 10.1289C112.602 9.3737 112.536 8.25391 112.406 6.76953C112.276 5.28516 112.211 4.15885 112.211 3.39062C112.211 2.6875 112.439 2.0625 112.895 1.51562C113.363 0.955729 113.975 0.675781 114.73 0.675781C116.228 0.675781 117.185 1.63932 117.602 3.56641C117.784 4.38672 117.875 5.92318 117.875 8.17578C117.875 21.8346 114.561 28.6641 107.934 28.6641ZM135.866 6.06641C135.579 6.06641 135.136 6.04688 134.537 6.00781C133.939 5.95573 133.489 5.92969 133.19 5.92969C131.745 5.92969 130.234 6.07292 128.659 6.35938C128.489 7.41406 128.183 8.79427 127.741 10.5C129.889 9.67969 131.517 9.26953 132.623 9.26953C133.34 9.26953 133.958 9.51042 134.479 9.99219C135 10.4609 135.26 11.0664 135.26 11.8086C135.26 12.8503 134.759 13.6445 133.756 14.1914C133.379 14.3997 132.435 14.7253 130.924 15.168C130.13 15.4154 128.535 15.9492 126.139 16.7695C125.618 18.9049 125.358 20.7799 125.358 22.3945C125.358 22.3815 125.306 22.5833 125.202 23C125.136 23.2865 125.169 23.4297 125.299 23.4297C126.497 23.4297 128.092 22.8438 130.084 21.6719C132.09 20.487 133.496 19.8945 134.303 19.8945C135.006 19.8945 135.618 20.1549 136.139 20.6758C136.673 21.1836 136.94 21.7891 136.94 22.4922C136.94 23.2734 136.523 24.0091 135.69 24.6992C134.674 25.5716 133.079 26.4375 130.905 27.2969C128.652 28.2083 126.881 28.6641 125.592 28.6641C123.704 28.6641 122.285 28.0195 121.334 26.7305C120.488 25.5977 120.065 24.1068 120.065 22.2578C120.065 19.9141 120.566 16.9193 121.569 13.2734C122.806 8.72917 123.528 5.77344 123.737 4.40625C123.867 3.50781 123.984 2.96094 124.088 2.76562C124.297 2.41406 124.791 2.05599 125.573 1.69141C127.031 1.01432 129.85 0.675781 134.03 0.675781C136.985 0.675781 138.463 1.59375 138.463 3.42969C138.463 4.14583 138.209 4.76432 137.702 5.28516C137.194 5.80599 136.582 6.06641 135.866 6.06641ZM164.816 6.06641C164.529 6.06641 164.086 6.04688 163.488 6.00781C162.889 5.95573 162.439 5.92969 162.14 5.92969C160.695 5.92969 159.184 6.07292 157.609 6.35938C157.439 7.41406 157.133 8.79427 156.691 10.5C158.839 9.67969 160.467 9.26953 161.573 9.26953C162.29 9.26953 162.908 9.51042 163.429 9.99219C163.95 10.4609 164.21 11.0664 164.21 11.8086C164.21 12.8503 163.709 13.6445 162.706 14.1914C162.329 14.3997 161.385 14.7253 159.874 15.168C159.08 15.4154 157.485 15.9492 155.089 16.7695C154.568 18.9049 154.308 20.7799 154.308 22.3945C154.308 22.3815 154.256 22.5833 154.152 23C154.086 23.2865 154.119 23.4297 154.249 23.4297C155.447 23.4297 157.042 22.8438 159.034 21.6719C161.04 20.487 162.446 19.8945 163.253 19.8945C163.956 19.8945 164.568 20.1549 165.089 20.6758C165.623 21.1836 165.89 21.7891 165.89 22.4922C165.89 23.2734 165.473 24.0091 164.64 24.6992C163.624 25.5716 162.029 26.4375 159.855 27.2969C157.602 28.2083 155.831 28.6641 154.542 28.6641C152.654 28.6641 151.235 28.0195 150.284 26.7305C149.438 25.5977 149.015 24.1068 149.015 22.2578C149.015 19.9141 149.516 16.9193 150.519 13.2734C151.756 8.72917 152.478 5.77344 152.687 4.40625C152.817 3.50781 152.934 2.96094 153.038 2.76562C153.247 2.41406 153.741 2.05599 154.523 1.69141C155.981 1.01432 158.8 0.675781 162.98 0.675781C165.935 0.675781 167.413 1.59375 167.413 3.42969C167.413 4.14583 167.159 4.76432 166.652 5.28516C166.144 5.80599 165.532 6.06641 164.816 6.06641ZM184.134 25.1094C183.249 26.0078 181.934 26.8281 180.189 27.5703C178.444 28.2995 176.94 28.6641 175.677 28.6641C173.347 28.6641 171.511 27.6875 170.17 25.7344C169.037 24.0677 168.47 22.0755 168.47 19.7578C168.47 17.7396 168.744 15.5521 169.291 13.1953C169.851 10.8385 170.586 8.76172 171.498 6.96484C173.62 2.77214 176.159 0.675781 179.115 0.675781C182.826 0.675781 184.681 3.40365 184.681 8.85938C184.681 11.7109 183.77 13.1367 181.947 13.1367C181.27 13.1367 180.664 12.8958 180.13 12.4141C179.61 11.9193 179.349 11.3268 179.349 10.6367C179.349 10.2982 179.369 9.80339 179.408 9.15234C179.447 8.5013 179.492 7.79818 179.545 7.04297C179.558 6.70443 179.558 6.44401 179.545 6.26172C179.492 6.0013 179.388 5.87109 179.232 5.87109C177.904 5.87109 176.537 7.92839 175.13 12.043C174.18 14.8815 173.705 17.4206 173.705 19.6602C173.705 22.069 174.584 23.2734 176.341 23.2734C177.136 23.2734 178.236 22.7721 179.642 21.7695C181.061 20.7669 182.051 20.2656 182.611 20.2656C183.314 20.2656 183.933 20.526 184.466 21.0469C185 21.5677 185.267 22.1862 185.267 22.9023C185.267 23.6055 184.89 24.3411 184.134 25.1094ZM196.285 28.6641C193.29 28.6641 190.914 27.3555 189.156 24.7383C187.646 22.4857 186.891 19.862 186.891 16.8672C186.891 13.0651 187.646 9.63411 189.156 6.57422C191.109 2.65495 193.909 0.695312 197.555 0.695312C200.953 0.695312 203.635 1.79557 205.602 3.99609C207.438 6.09245 208.355 8.83984 208.355 12.2383C208.355 15.9232 207.333 19.4453 205.289 22.8047C202.893 26.7109 199.892 28.6641 196.285 28.6641ZM196.969 6.00781C195.523 6.00781 194.299 7.49219 193.297 10.4609C192.516 12.8177 192.125 14.9531 192.125 16.8672C192.125 19.7578 192.945 21.737 194.586 22.8047C195.172 23.1823 195.706 23.3711 196.188 23.3711C198.102 23.3711 199.781 21.9909 201.227 19.2305C202.49 16.8086 203.121 14.4323 203.121 12.1016C203.121 8.03906 201.07 6.00781 196.969 6.00781ZM229.998 22.375C229.373 24.0807 228.547 25.487 227.518 26.5938C226.216 28.0391 224.718 28.7617 223.026 28.7617C219.718 28.7617 217.271 26.2096 215.682 21.1055C215.643 22.0299 215.623 22.9609 215.623 23.8984C215.623 27.0755 214.666 28.6641 212.752 28.6641C212.023 28.6641 211.405 28.4232 210.897 27.9414C210.402 27.4466 210.155 26.8346 210.155 26.1055C210.155 22.707 210.467 18.6706 211.092 13.9961C211.821 8.39714 212.739 4.54297 213.846 2.43359C214.471 1.26172 215.285 0.675781 216.288 0.675781C217.707 0.675781 218.605 1.52865 218.983 3.23438C219.1 3.70312 219.159 5.08984 219.159 7.39453C219.315 10.793 219.582 13.8073 219.959 16.4375C220.623 21.1901 221.613 23.5664 222.928 23.5664C223.944 23.5664 224.718 22.4792 225.252 20.3047C225.63 18.7682 225.819 17.2253 225.819 15.6758C225.819 14.2695 225.558 12.1992 225.038 9.46484C224.517 6.73047 224.256 4.6862 224.256 3.33203C224.256 2.61589 224.491 1.9974 224.959 1.47656C225.441 0.942708 226.053 0.675781 226.795 0.675781C228.241 0.675781 229.23 1.69792 229.764 3.74219C229.868 4.13281 230.077 5.72786 230.389 8.52734C230.858 12.8372 231.092 15.2396 231.092 15.7344C231.092 18.1172 230.728 20.3307 229.998 22.375ZM242.501 28.6641C239.506 28.6641 237.13 27.3555 235.372 24.7383C233.861 22.4857 233.106 19.862 233.106 16.8672C233.106 13.0651 233.861 9.63411 235.372 6.57422C237.325 2.65495 240.124 0.695312 243.77 0.695312C247.169 0.695312 249.851 1.79557 251.817 3.99609C253.653 6.09245 254.571 8.83984 254.571 12.2383C254.571 15.9232 253.549 19.4453 251.505 22.8047C249.109 26.7109 246.108 28.6641 242.501 28.6641ZM243.184 6.00781C241.739 6.00781 240.515 7.49219 239.512 10.4609C238.731 12.8177 238.341 14.9531 238.341 16.8672C238.341 19.7578 239.161 21.737 240.802 22.8047C241.387 23.1823 241.921 23.3711 242.403 23.3711C244.317 23.3711 245.997 21.9909 247.442 19.2305C248.705 16.8086 249.337 14.4323 249.337 12.1016C249.337 8.03906 247.286 6.00781 243.184 6.00781ZM279.769 28.6641C278.662 28.6641 277.874 28.1888 277.405 27.2383C277.158 26.7435 276.937 25.806 276.741 24.4258C276.559 23.1367 275.902 20.0508 274.769 15.168C273.792 18.9701 273.083 22.0951 272.64 24.543C272.392 25.819 272.139 26.7174 271.878 27.2383C271.383 28.1888 270.635 28.6641 269.632 28.6641C268.721 28.6641 267.998 28.3125 267.464 27.6094C267.152 27.1536 266.846 26.4049 266.546 25.3633C265.543 21.9258 264.619 18.306 263.773 14.5039C262.822 18.5273 262.145 21.8346 261.741 24.4258C261.52 25.7669 261.273 26.7044 260.999 27.2383C260.491 28.1888 259.704 28.6641 258.636 28.6641C257.907 28.6641 257.301 28.3971 256.82 27.8633C256.338 27.3164 256.097 26.6979 256.097 26.0078C256.097 25.2005 256.598 22.4987 257.601 17.9023C258.382 14.3867 259.014 11.6849 259.495 9.79688C259.834 8.40365 260.394 6.30729 261.175 3.50781C261.748 1.61979 262.744 0.675781 264.163 0.675781C265.166 0.675781 265.915 1.15104 266.409 2.10156C266.657 2.63542 266.891 3.54688 267.112 4.83594C267.594 7.88281 268.323 11.4505 269.3 15.5391C269.899 12.9349 270.433 10.819 270.902 9.19141C271.253 8.08464 271.774 6.41146 272.464 4.17188C272.777 3.03906 273.07 2.25781 273.343 1.82812C273.851 1.0599 274.56 0.675781 275.472 0.675781C276.644 0.675781 277.445 1.2487 277.874 2.39453C278.07 2.95443 278.226 4.00911 278.343 5.55859C278.408 6.69141 278.675 8.35156 279.144 10.5391C279.717 13.1302 280.303 15.7148 280.902 18.293C281.839 22.4076 282.308 24.9792 282.308 26.0078C282.308 26.7109 282.067 27.3294 281.585 27.8633C281.103 28.3971 280.498 28.6641 279.769 28.6641ZM289.576 18.0586C289.407 20.3112 289.322 22.3685 289.322 24.2305C289.322 27.1862 288.397 28.6641 286.548 28.6641C285.832 28.6641 285.214 28.4036 284.693 27.8828C284.172 27.362 283.912 26.7435 283.912 26.0273C283.912 23.944 284.035 21.3919 284.283 18.3711C284.478 15.819 284.68 13.2604 284.888 10.6953C284.953 9.40625 284.986 8.13021 284.986 6.86719C285.142 5.38281 285.377 4.11328 285.689 3.05859C286.158 1.47005 287.011 0.675781 288.248 0.675781C288.964 0.675781 289.582 0.929688 290.103 1.4375C290.624 1.94531 290.884 2.55729 290.884 3.27344C290.884 5.20052 290.715 7.66797 290.377 10.6758C289.895 14.8945 289.628 17.3555 289.576 18.0586ZM301.316 28.6641C299.728 28.6641 298.237 28.319 296.844 27.6289C295.06 26.7826 294.168 25.6628 294.168 24.2695C294.168 22.3555 295.19 20.0638 297.234 17.3945C298.081 16.2878 299.962 14.1654 302.879 11.0273C304.923 8.85286 305.945 7.43359 305.945 6.76953C305.945 6.23568 305.477 5.92318 304.539 5.83203C304.669 5.85807 303.992 5.87109 302.508 5.87109C301.818 5.87109 300.77 5.91667 299.363 6.00781C297.97 6.08594 296.928 6.125 296.238 6.125C293.621 6.125 292.312 5.22656 292.312 3.42969C292.312 1.63281 293.634 0.734375 296.277 0.734375C296.811 0.734375 297.599 0.727865 298.641 0.714844C299.682 0.688802 300.47 0.675781 301.004 0.675781C303.647 0.675781 305.88 1.00781 307.703 1.67188C310.333 2.64844 311.648 4.23698 311.648 6.4375C311.648 7.67448 311.082 9.1263 309.949 10.793C309.194 11.9128 307.957 13.4167 306.238 15.3047C304.194 17.5182 303.061 18.7617 302.84 19.0352C301.46 20.6497 300.496 22.0299 299.949 23.1758C300.405 23.2539 300.861 23.293 301.316 23.293C302.332 23.293 303.549 23.1758 304.969 22.9414C306.193 22.7201 307.404 22.4922 308.602 22.2578C309.227 22.1797 309.793 22.1406 310.301 22.1406C310.991 22.1406 311.577 22.4076 312.059 22.9414C312.54 23.4753 312.781 24.0742 312.781 24.7383C312.781 26.0924 311.147 27.1471 307.879 27.9023C305.613 28.4102 303.426 28.6641 301.316 28.6641ZM329.639 28.6641C328.741 28.6641 328.096 28.3516 327.705 27.7266C327.575 27.5312 327.321 26.8672 326.944 25.7344C326.032 23.026 323.721 21.2357 320.01 20.3633C319.828 21.2747 319.6 22.668 319.327 24.543C319.222 25.819 319.034 26.724 318.76 27.2578C318.317 28.1953 317.543 28.6641 316.436 28.6641C315.681 28.6641 315.056 28.3906 314.561 27.8438C314.079 27.2839 313.838 26.6328 313.838 25.8906C313.838 25.7604 313.851 25.5977 313.877 25.4023C314.515 20.5326 315.212 16.776 315.967 14.1328C317.074 10.2917 318.754 6.80208 321.006 3.66406C322.426 1.67188 324.047 0.675781 325.87 0.675781C329.867 0.675781 331.866 4.9401 331.866 13.4688C331.866 13.8464 331.853 14.4323 331.827 15.2266C331.827 16.0078 331.827 16.5872 331.827 16.9648C331.827 17.9935 331.918 19.5169 332.1 21.5352C332.295 23.5534 332.393 25.0638 332.393 26.0664C332.393 26.8216 332.107 27.4466 331.534 27.9414C330.974 28.4232 330.342 28.6641 329.639 28.6641ZM326.592 10.9297C326.449 9.66667 326.364 8.84635 326.338 8.46875C326.221 7.375 326.039 6.58724 325.791 6.10547C325.817 6.05339 325.83 6.02083 325.83 6.00781C325.479 6.00781 324.678 7.16016 323.428 9.46484C322.452 11.2227 321.69 13.1367 321.143 15.207C323.135 15.6628 324.952 16.4049 326.592 17.4336V10.9297ZM347.61 21.6914C349.915 23.3841 351.067 24.8294 351.067 26.0273C351.067 26.7695 350.787 27.3815 350.227 27.8633C349.68 28.332 349.062 28.5664 348.372 28.5664C347.89 28.5664 347.324 28.332 346.673 27.8633C345.657 27.0169 344.036 25.8646 341.809 24.4062V24.8945C341.835 27.4076 340.937 28.6641 339.114 28.6641C338.398 28.6641 337.786 28.4232 337.278 27.9414C336.77 27.4466 336.516 26.8346 336.516 26.1055C336.516 24.6341 336.516 22.1862 336.516 18.7617C336.816 16.1185 336.966 12.1667 336.966 6.90625H337.2C336.497 6.90625 335.885 6.65234 335.364 6.14453C334.856 5.6237 334.602 5.01172 334.602 4.30859C334.602 3.05859 335.527 2.08854 337.376 1.39844C338.756 0.916667 340.201 0.675781 341.712 0.675781C345.292 0.675781 348.294 1.70443 350.716 3.76172C353.268 5.96224 354.544 8.85286 354.544 12.4336C354.544 16.6133 352.233 19.6992 347.61 21.6914ZM342.571 5.96875C342.532 7.96094 342.513 11.9583 342.513 17.9609C347.018 16.5807 349.27 14.7057 349.27 12.3359C349.27 10.9818 348.528 9.64714 347.044 8.33203C345.638 7.08203 344.147 6.29427 342.571 5.96875ZM370.796 13.8594C369.624 14.3151 368.446 14.7708 367.261 15.2266C365.737 15.9427 364.793 16.6979 364.429 17.4922C364.273 17.8698 364.195 18.3516 364.195 18.9375C364.195 19.6406 363.915 20.2201 363.355 20.6758C362.808 21.1185 362.215 21.3398 361.577 21.3398C359.82 21.3398 358.941 20.2266 358.941 18C358.941 15.513 360.197 13.4492 362.71 11.8086C362.84 11.7174 364.383 11.0273 367.339 9.73828C369.761 8.67057 370.972 7.92188 370.972 7.49219C370.972 6.38542 369.514 5.83203 366.597 5.83203C365.751 5.83203 364.618 5.98828 363.198 6.30078C361.779 6.61328 360.835 6.76953 360.366 6.76953C359.676 6.76953 359.123 6.4375 358.706 5.77344C358.342 5.23958 358.159 4.67969 358.159 4.09375C358.159 2.80469 359.181 1.86068 361.226 1.26172C362.606 0.871094 364.155 0.675781 365.874 0.675781C368.53 0.675781 370.816 1.08594 372.73 1.90625C375.295 3.03906 376.577 4.77083 376.577 7.10156C376.577 8.8724 375.965 10.3503 374.741 11.5352C373.869 12.3555 372.554 13.1302 370.796 13.8594ZM360.64 28.6641C359.859 28.6641 359.188 28.3711 358.628 27.7852C358.081 27.1992 357.808 26.5286 357.808 25.7734C357.808 24.9271 358.146 24.1393 358.823 23.4102C359.501 22.668 360.269 22.2969 361.128 22.2969C362.001 22.2969 362.704 22.6745 363.237 23.4297C363.706 24.0938 363.941 24.8164 363.941 25.5977C363.941 26.4701 363.602 27.1992 362.925 27.7852C362.248 28.3711 361.486 28.6641 360.64 28.6641Z" fill="black"/>
</svg>
