<svg width="100" height="51" viewBox="0 0 100 51" fill="none" xmlns="http://www.w3.org/2000/svg">
<path d="M107.767 12.557C100.447 12.557 93.1262 12.557 85.8058 12.557C77.9525 12.557 70.0992 12.557 62.246 12.557C55.2964 12.557 47.7821 11.7618 40.9018 13.1758C34.3086 14.5308 28 17.641 28 25.2152C28 27.2897 29.2633 28.3052 30.5523 29.8565C33.8525 33.8283 36.558 37.3601 41.2384 39.8987C56.3332 48.086 73.4756 48 90.1251 48C101.281 48 112.036 47.386 122.913 44.962C126.687 44.1208 132 41.8715 132 37.5921C132 31.2228 125.775 23.8395 120.753 20.602C114.654 16.67 107.017 15.2004 100.306 12.6695C95.8151 10.9755 91.2155 9.1665 86.5631 8" stroke="#01D859" stroke-width="6" stroke-linecap="round"/>
<path d="M11.3086 42.6641C8.30078 42.6641 5.91797 41.3555 4.16016 38.7383C2.64974 36.4857 1.89453 33.862 1.89453 30.8672C1.89453 27.0651 2.64974 23.6341 4.16016 20.5742C6.1263 16.6549 8.92578 14.6953 12.5586 14.6953C15.9701 14.6953 18.6523 15.7956 20.6055 17.9961C22.4414 20.0924 23.3594 22.8398 23.3594 26.2383C23.3594 29.9232 22.3372 33.4453 20.293 36.8047C17.8971 40.7109 14.9023 42.6641 11.3086 42.6641ZM11.9727 20.0078C10.5273 20.0078 9.30339 21.4922 8.30078 24.4609C7.51953 26.8177 7.12891 28.9531 7.12891 30.8672C7.12891 33.7578 7.95573 35.737 9.60938 36.8047C10.1823 37.1823 10.7096 37.3711 11.1914 37.3711C13.1055 37.3711 14.7852 35.9909 16.2305 33.2305C17.4935 30.8086 18.125 28.4323 18.125 26.1016C18.125 22.0391 16.0742 20.0078 11.9727 20.0078ZM38.6961 42.6641C37.2247 42.6641 36.144 42.0456 35.4539 40.8086C34.9461 39.8711 34.6922 38.7122 34.6922 37.332C34.6922 36.3815 34.8224 34.0378 35.0828 30.3008C35.213 27.9831 35.506 24.513 35.9617 19.8906C34.9591 19.4349 34.4578 18.6732 34.4578 17.6055C34.4578 16.2513 35.1544 15.3724 36.5477 14.9688C37.2117 14.7734 38.4487 14.6758 40.2586 14.6758C44.0607 14.6758 47.2508 15.6523 49.8289 17.6055C52.7065 19.7799 54.1453 22.7552 54.1453 26.5312C54.1453 30.0599 52.4721 33.6146 49.1258 37.1953C45.7013 40.8411 42.2247 42.6641 38.6961 42.6641ZM40.2586 37.1953C42.1206 36.5573 44.0216 35.1771 45.9617 33.0547C47.9148 30.9323 48.8914 28.9141 48.8914 27C48.8914 25.6849 48.7221 24.6302 48.3836 23.8359C47.8758 22.651 46.9122 21.7201 45.493 21.043C44.243 20.431 42.8172 20.125 41.2156 20.125C40.9552 21.8177 40.7339 24.0443 40.5516 26.8047C40.3563 29.2656 40.2586 32.7292 40.2586 37.1953ZM60.632 32.0586C60.4628 34.3112 60.3781 36.3685 60.3781 38.2305C60.3781 41.1862 59.4536 42.6641 57.6047 42.6641C56.8885 42.6641 56.2701 42.4036 55.7492 41.8828C55.2284 41.362 54.968 40.7435 54.968 40.0273C54.968 37.944 55.0917 35.3919 55.3391 32.3711C55.5344 29.819 55.7362 27.2604 55.9445 24.6953C56.0096 23.4062 56.0422 22.1302 56.0422 20.8672C56.1984 19.3828 56.4328 18.1133 56.7453 17.0586C57.2141 15.4701 58.0669 14.6758 59.3039 14.6758C60.0201 14.6758 60.6385 14.9297 61.1594 15.4375C61.6802 15.9453 61.9406 16.5573 61.9406 17.2734C61.9406 19.2005 61.7714 21.668 61.4328 24.6758C60.951 28.8945 60.6841 31.3555 60.632 32.0586ZM78.6031 42.6641C77.7047 42.6641 77.0602 42.3516 76.6695 41.7266C76.5393 41.5312 76.2854 40.8672 75.9078 39.7344C74.9964 37.026 72.6852 35.2357 68.9742 34.3633C68.7919 35.2747 68.5641 36.668 68.2906 38.543C68.1865 39.819 67.9977 40.724 67.7242 41.2578C67.2815 42.1953 66.5068 42.6641 65.4 42.6641C64.6448 42.6641 64.0198 42.3906 63.525 41.8438C63.0432 41.2839 62.8023 40.6328 62.8023 39.8906C62.8023 39.7604 62.8154 39.5977 62.8414 39.4023C63.4794 34.5326 64.176 30.776 64.9313 28.1328C66.038 24.2917 67.7177 20.8021 69.9703 17.6641C71.3896 15.6719 73.0107 14.6758 74.8336 14.6758C78.831 14.6758 80.8297 18.9401 80.8297 27.4688C80.8297 27.8464 80.8167 28.4323 80.7906 29.2266C80.7906 30.0078 80.7906 30.5872 80.7906 30.9648C80.7906 31.9935 80.8818 33.5169 81.0641 35.5352C81.2594 37.5534 81.357 39.0638 81.357 40.0664C81.357 40.8216 81.0706 41.4466 80.4977 41.9414C79.9378 42.4232 79.3063 42.6641 78.6031 42.6641ZM75.5563 24.9297C75.413 23.6667 75.3284 22.8464 75.3023 22.4688C75.1852 21.375 75.0029 20.5872 74.7555 20.1055C74.7815 20.0534 74.7945 20.0208 74.7945 20.0078C74.443 20.0078 73.6422 21.1602 72.3922 23.4648C71.4156 25.2227 70.6539 27.1367 70.107 29.207C72.0992 29.6628 73.9156 30.4049 75.5563 31.4336V24.9297ZM108.686 26.2969C107.827 27.3255 106.498 28.6471 104.702 30.2617C102.735 32.0195 101.368 33.3216 100.6 34.168C99.376 35.4831 98.7641 36.4271 98.7641 37C98.7641 37.2604 99.1612 37.3906 99.9555 37.3906C101.01 37.3906 103.393 37.0586 107.104 36.3945C107.924 36.2383 108.653 36.1602 109.291 36.1602C110.008 36.1602 110.6 36.4401 111.069 37C111.551 37.5599 111.791 38.1719 111.791 38.8359C111.791 39.9688 111.212 40.7565 110.053 41.1992C109.636 41.3555 108.608 41.5573 106.967 41.8047C105.808 41.974 104.643 42.1628 103.471 42.3711C102.104 42.5664 100.932 42.6641 99.9555 42.6641C95.5414 42.6641 93.3344 40.9648 93.3344 37.5664C93.3344 35.5612 94.4672 33.2695 96.7328 30.6914C97.4359 29.8711 99.5258 27.8398 103.002 24.5977C105.268 22.4622 106.401 20.9714 106.401 20.125C106.401 19.9948 106.166 19.9297 105.698 19.9297C104.604 19.9297 103.113 20.3659 101.225 21.2383C100.821 22.3841 100.034 22.957 98.8617 22.957C98.1065 22.957 97.4685 22.7161 96.9477 22.2344C96.4398 21.7396 96.1859 21.1081 96.1859 20.3398C96.1859 18.6211 97.4099 17.1953 99.8578 16.0625C101.863 15.138 103.829 14.6758 105.756 14.6758C107.423 14.6758 108.803 15.0534 109.897 15.8086C111.186 16.7201 111.83 18.0286 111.83 19.7344C111.83 21.6875 110.782 23.875 108.686 26.2969ZM129.762 35.4961C129.45 37.8268 129.216 39.2721 129.059 39.832C128.473 41.7201 127.529 42.6641 126.227 42.6641C125.563 42.6641 124.971 42.4297 124.45 41.9609C123.877 41.4792 123.591 40.8932 123.591 40.2031C123.591 38.888 124.033 36.4531 124.919 32.8984C124.671 32.9245 124.43 32.9375 124.196 32.9375C121.566 32.9375 119.339 32.306 117.516 31.043C115.433 29.5716 114.391 27.5143 114.391 24.8711C114.391 22.3581 115.654 20.0013 118.18 17.8008C120.602 15.7174 123.07 14.6758 125.583 14.6758C127.783 14.6758 129.398 15.6589 130.427 17.625C131.182 19.0703 131.559 20.9062 131.559 23.1328C131.559 24.7734 131.325 26.8372 130.856 29.3242C130.192 32.8008 129.828 34.8581 129.762 35.4961ZM124.958 19.793C123.708 19.793 122.549 20.3659 121.481 21.5117C120.414 22.6576 119.88 23.862 119.88 25.125C119.88 26.7526 120.98 27.5664 123.18 27.5664C124.027 27.5664 124.964 27.4427 125.993 27.1953C126.214 25.5807 126.325 23.9596 126.325 22.332C126.325 21.4857 126.279 20.9193 126.188 20.6328C126.006 20.0729 125.596 19.793 124.958 19.793Z" fill="black"/>
</svg>
