<svg width="42" height="35" viewBox="0 0 42 35" fill="none" xmlns="http://www.w3.org/2000/svg">
<path d="M21.6865 32.0704C21.6865 26.6763 21.7211 21.2811 21.6865 15.8871C21.6579 11.4294 21.9184 6.14197 20.5119 1.92242" stroke="#01D859" stroke-width="3" stroke-linecap="round"/>
<path d="M20.5119 1.92242C20.5119 5.18317 19.6637 8.64363 17.3797 10.9277" stroke="#01D859" stroke-width="3" stroke-linecap="round"/>
<path d="M20.7435 1.91602C20.7435 3.28352 21.7269 4.49391 22.5763 5.49894C23.0629 6.07483 23.476 6.72333 24.1613 7.08401C24.9724 7.51089 25.4163 8.48751 26.2417 8.90024" stroke="#01D859" stroke-width="3" stroke-linecap="round"/>
<path d="M21.6351 12.1695C21.6351 12.6373 21.6351 13.1051 21.6351 13.5729C21.6351 14.8877 20.7465 15.7863 20.0088 16.8339C19.6645 17.3227 18.9325 18.7723 18.2173 18.8565C18.0503 18.8761 17.7676 19.0572 17.6229 19.1537" stroke="#01D859" stroke-width="3" stroke-linecap="round"/>
<path d="M21.3379 13.8041C22.9172 13.8626 23.8757 14.7829 25.1272 15.6616C26.129 16.365 27.17 16.9987 28.1735 17.6677" stroke="#01D859" stroke-width="3" stroke-linecap="round"/>
<path d="M21.6351 21.0855C21.7785 21.0855 21.0923 21.4484 20.9664 21.5231C20.2467 21.9496 19.4274 22.1456 18.6466 22.4229C17.2057 22.9346 15.8811 23.8981 14.9481 25.0977" stroke="#01D859" stroke-width="3" stroke-linecap="round"/>
<path d="M20.7435 21.6799C22.083 21.6799 23.1519 22.6444 24.2934 23.232C25.2304 23.7142 26.1307 24.3177 27.1333 24.6519" stroke="#01D859" stroke-width="3" stroke-linecap="round"/>
<path d="M6.91145 32.8249C6.91145 29.5062 6.91145 26.1874 6.91145 22.8687C6.91145 22.2567 6.91265 21.6478 6.94448 21.036C6.95396 20.8537 7.20865 17.4003 7.20865 18.5593" stroke="#01D859" stroke-width="3" stroke-linecap="round"/>
<path d="M7.20865 17.9649C6.89378 17.9649 6.30112 17.8372 6.01985 17.9979C5.32373 18.3957 4.65576 19.1804 4.08804 19.7481C3.77282 20.0633 2.66562 21.6585 2.60204 21.5313" stroke="#01D859" stroke-width="3" stroke-linecap="round"/>
<path d="M6.16844 17.9649C7.2135 17.9649 8.40701 18.7225 9.2065 19.3766C9.539 19.6486 9.82764 20.166 10.1807 20.3425" stroke="#01D859" stroke-width="3" stroke-linecap="round"/>
<path d="M6.16845 24.5033C4.98589 24.5033 4.27854 25.176 3.34504 25.7251C2.89382 25.9905 2.85228 26.7558 2.30484 27.0295" stroke="#01D859" stroke-width="3" stroke-linecap="round"/>
<path d="M6.31705 24.3547C7.19245 24.3547 7.97233 24.3659 8.72768 24.8335C9.35104 25.2194 9.83111 25.8145 10.4779 26.1379" stroke="#01D859" stroke-width="3" stroke-linecap="round"/>
<path d="M6.16844 16.1817V17.0733" stroke="#01D859" stroke-width="3" stroke-linecap="round"/>
<path d="M36.656 18.1135V31.9333" stroke="#01D859" stroke-width="3" stroke-linecap="round"/>
<path d="M36.656 18.4107C35.1244 18.9212 33.6491 20.8581 32.941 22.2743" stroke="#01D859" stroke-width="3" stroke-linecap="round"/>
<path d="M36.9532 17.8163C37.7868 18.4415 39.4306 19.3044 39.7766 20.3425" stroke="#01D859" stroke-width="3" stroke-linecap="round"/>
<path d="M36.0616 24.5033C33.9944 24.5033 33.1142 26.683 32.3466 28.2183" stroke="#01D859" stroke-width="3" stroke-linecap="round"/>
<path d="M35.17 25.2463C36.022 25.2463 37.1125 25.0611 37.8695 25.4775C38.4918 25.8197 39.1586 26.0588 39.7766 26.4021C40.0203 26.5375 40.0645 26.7323 40.371 26.7323" stroke="#01D859" stroke-width="3" stroke-linecap="round"/>
<path d="M36.9532 16.6275V17.3705" stroke="#01D859" stroke-width="3" stroke-linecap="round"/>
</svg>
