<svg width="43" height="41" viewBox="0 0 43 41" fill="none" xmlns="http://www.w3.org/2000/svg">
<path d="M5.58067 7.03827C5.47634 7.87293 4.75193 7.51116 4.13702 7.64781C3.03285 7.89318 2.97883 10.0879 2.8217 10.9521C2.29196 13.8657 2.11592 16.908 2.11592 19.8707C2.11592 25.939 3.08633 29.4472 8.82085 32.1898C12.5513 33.9739 15.6131 36.6138 19.4717 37.9644C21.9868 38.8446 24.3283 38.7985 26.9466 38.7985C33.0124 38.7985 36.7372 35.8478 38.3675 29.8158C38.9636 27.6101 40.0455 25.5467 40.6773 23.3354C41.2778 21.2335 40.868 18.1389 40.8056 15.9568C40.6409 10.1903 31.3986 6.13151 26.9466 4.02265C25.2796 3.23299 23.0227 2.99606 21.172 2.99606C17.7718 2.99606 13.9972 2.45798 11.0344 4.15098C9.81573 4.84738 8.90916 5.97373 7.56969 6.46081C7.02816 6.65773 5.51089 6.78723 5.13154 7.16659C4.24073 8.0574 5.64426 7.9583 6.15813 7.61572" stroke="#01D859" stroke-width="4" stroke-linecap="round"/>
<path d="M6.15813 7.03828C6.15813 8.75218 12.9553 10.5328 14.5634 12.2354C16.3288 14.1047 14.9645 17.1454 14.1142 19.1649C12.6886 22.5507 16.653 23.4704 18.2847 25.9661C19.7713 28.2397 17.281 35.8552 19.3113 34.0505C20.5973 32.9074 20.3686 29.16 21.172 27.506C21.7849 26.2442 21.9884 24.9531 22.4553 23.6562C23.313 21.2737 26.6712 21.6081 26.3692 18.5874C26.1433 16.3285 18.4449 9.62794 23.4819 9.34811C26.0448 9.20572 27.8518 7.20476 29.8339 5.88336" stroke="#01D859" stroke-width="4" stroke-linecap="round"/>
</svg>
